<?xml version="1.0" encoding="UTF-8" standalone="no"?>
<!-- Created with Inkscape (http://www.inkscape.org/) -->

<svg
   width="1920"
   height="1080"
   viewBox="0 0 507.99996 285.74999"
   version="1.1"
   id="svg1"
   inkscape:export-filename="..\..\..\..\xampp\htdocs\raktar\topofull.svg"
   inkscape:export-xdpi="164.20203"
   inkscape:export-ydpi="164.20203"
   inkscape:version="1.3.2 (091e20e, 2023-11-25, custom)"
   sodipodi:docname="rajz-1.svg"
   xmlns:inkscape="http://www.inkscape.org/namespaces/inkscape"
   xmlns:sodipodi="http://sodipodi.sourceforge.net/DTD/sodipodi-0.dtd"
   xmlns="http://www.w3.org/2000/svg"
   xmlns:svg="http://www.w3.org/2000/svg">
  <sodipodi:namedview
     id="namedview1"
     pagecolor="#ffffff"
     bordercolor="#999999"
     borderopacity="1"
     inkscape:showpageshadow="2"
     inkscape:pageopacity="0"
     inkscape:pagecheckerboard="0"
     inkscape:deskcolor="#d1d1d1"
     inkscape:document-units="mm"
     inkscape:zoom="5.6568542"
     inkscape:cx="351.43207"
     inkscape:cy="23.069359"
     inkscape:window-width="2560"
     inkscape:window-height="1417"
     inkscape:window-x="-8"
     inkscape:window-y="-8"
     inkscape:window-maximized="1"
     inkscape:current-layer="layer1" />
  <defs
     id="defs1" />
  <g
     inkscape:label="Réteg 1"
     inkscape:groupmode="layer"
     id="layer1">
    <path
       style="fill:none;stroke:#1d1d1d;stroke-width:0.964999;stroke-linecap:round;stroke-linejoin:bevel;stroke-opacity:1"
       d="m 121.17806,-0.48249951 h 0.36487"
       id="path1-7" />
    <path
       style="fill:none;stroke:#1d1d1d;stroke-width:0.964999;stroke-linecap:round;stroke-linejoin:bevel;stroke-opacity:1"
       d="m 149.43635,-0.48249951 h 0.36487"
       id="path1-8-37" />
    <path
       style="fill:none;stroke:#1d1d1d;stroke-width:0.964999;stroke-linecap:round;stroke-linejoin:bevel;stroke-opacity:1"
       d="m 140.55797,-0.48249951 h 0.36487"
       id="path1-15-19" />
    <path
       style="fill:none;stroke:#1d1d1d;stroke-width:0.964999;stroke-linecap:round;stroke-linejoin:bevel;stroke-opacity:1"
       d="m 129.72723,-0.48249951 h 0.36486"
       id="path1-1-7" />
    <path
       style="fill:none;stroke:#1d1d1d;stroke-width:0.964999;stroke-linecap:round;stroke-linejoin:bevel;stroke-opacity:1"
       d="m 158.652,-0.48249951 h 0.36487"
       id="path1-5-4" />
    <path
       style="fill:none;stroke:#1d1d1d;stroke-width:0.964999;stroke-linecap:round;stroke-linejoin:bevel;stroke-opacity:1"
       d="m 186.91029,-0.48249951 h 0.36487"
       id="path1-8-3-0" />
    <path
       style="fill:none;stroke:#1d1d1d;stroke-width:0.964999;stroke-linecap:round;stroke-linejoin:bevel;stroke-opacity:1"
       d="m 178.03191,-0.48249951 h 0.36487"
       id="path1-15-1-7" />
    <path
       style="fill:none;stroke:#1d1d1d;stroke-width:0.964999;stroke-linecap:round;stroke-linejoin:bevel;stroke-opacity:1"
       d="m 167.20117,-0.48249951 h 0.36486"
       id="path1-1-8-0" />
    <path
       style="fill:none;stroke:#1d1d1d;stroke-width:0.964999;stroke-linecap:round;stroke-linejoin:bevel;stroke-opacity:1"
       d="m 196.03703,-0.48249951 h 0.36486"
       id="path1-58-7" />
    <path
       style="fill:none;stroke:#1d1d1d;stroke-width:0.964999;stroke-linecap:round;stroke-linejoin:bevel;stroke-opacity:1"
       d="m 224.29531,-0.48249951 h 0.36487"
       id="path1-8-35-9" />
    <path
       style="fill:none;stroke:#1d1d1d;stroke-width:0.964999;stroke-linecap:round;stroke-linejoin:bevel;stroke-opacity:1"
       d="m 215.41694,-0.48249951 h 0.36486"
       id="path1-15-6-9" />
    <path
       style="fill:none;stroke:#1d1d1d;stroke-width:0.964999;stroke-linecap:round;stroke-linejoin:bevel;stroke-opacity:1"
       d="m 204.58619,-0.48249951 h 0.36487"
       id="path1-1-2-5" />
    <path
       style="fill:none;stroke:#1d1d1d;stroke-width:0.964999;stroke-linecap:round;stroke-linejoin:bevel;stroke-opacity:1"
       d="m 237.69173,-0.43583235 h 0.36487"
       id="path1-4" />
    <path
       style="fill:none;stroke:#1d1d1d;stroke-width:0.964999;stroke-linecap:round;stroke-linejoin:bevel;stroke-opacity:1"
       d="m 265.95002,-0.43583235 h 0.36486"
       id="path1-8-1" />
    <path
       style="fill:none;stroke:#1d1d1d;stroke-width:0.964999;stroke-linecap:round;stroke-linejoin:bevel;stroke-opacity:1"
       d="m 257.07164,-0.43583235 h 0.36487"
       id="path1-15-5" />
    <path
       style="fill:none;stroke:#1d1d1d;stroke-width:0.964999;stroke-linecap:round;stroke-linejoin:bevel;stroke-opacity:1"
       d="m 246.2409,-0.43583235 h 0.36486"
       id="path1-1-9" />
    <path
       style="fill:none;stroke:#1d1d1d;stroke-width:0.964999;stroke-linecap:round;stroke-linejoin:bevel;stroke-opacity:1"
       d="m 275.16567,-0.43583235 h 0.36487"
       id="path1-5-6" />
    <path
       style="fill:none;stroke:#1d1d1d;stroke-width:0.964999;stroke-linecap:round;stroke-linejoin:bevel;stroke-opacity:1"
       d="m 303.42396,-0.43583235 h 0.36487"
       id="path1-8-3-2" />
    <path
       style="fill:none;stroke:#1d1d1d;stroke-width:0.964999;stroke-linecap:round;stroke-linejoin:bevel;stroke-opacity:1"
       d="m 294.54558,-0.43583235 h 0.36487"
       id="path1-15-1-8" />
    <path
       style="fill:none;stroke:#1d1d1d;stroke-width:0.964999;stroke-linecap:round;stroke-linejoin:bevel;stroke-opacity:1"
       d="m 283.71484,-0.43583235 h 0.36486"
       id="path1-1-8-4" />
    <path
       style="fill:none;stroke:#1d1d1d;stroke-width:0.964999;stroke-linecap:round;stroke-linejoin:bevel;stroke-opacity:1"
       d="m 312.5507,-0.43583235 h 0.36486"
       id="path1-58-1" />
    <path
       style="fill:none;stroke:#1d1d1d;stroke-width:0.964999;stroke-linecap:round;stroke-linejoin:bevel;stroke-opacity:1"
       d="m 340.80898,-0.43583235 h 0.36487"
       id="path1-8-35-5" />
    <path
       style="fill:none;stroke:#1d1d1d;stroke-width:0.964999;stroke-linecap:round;stroke-linejoin:bevel;stroke-opacity:1"
       d="m 331.93061,-0.43583235 h 0.36486"
       id="path1-15-6-1" />
    <path
       style="fill:none;stroke:#1d1d1d;stroke-width:0.964999;stroke-linecap:round;stroke-linejoin:bevel;stroke-opacity:1"
       d="m 321.09986,-0.43583235 h 0.36487"
       id="path1-1-2-0" />
    <path
       style="fill:none;stroke:#1d1d1d;stroke-width:0.964999;stroke-linecap:round;stroke-linejoin:bevel;stroke-opacity:1"
       d="m 349.68736,-0.38916515 h 0.36487"
       id="path1-7-9" />
    <path
       style="fill:none;stroke:#1d1d1d;stroke-width:0.964999;stroke-linecap:round;stroke-linejoin:bevel;stroke-opacity:1"
       d="m 369.06727,-0.38916515 h 0.36487"
       id="path1-15-19-2" />
    <path
       style="fill:none;stroke:#1d1d1d;stroke-width:0.964999;stroke-linecap:round;stroke-linejoin:bevel;stroke-opacity:1"
       d="m 358.23653,-0.38916515 h 0.36486"
       id="path1-1-7-9" />
    <path
       style="fill:none;stroke:#1d1d1d;stroke-width:0.964999;stroke-linecap:round;stroke-linejoin:bevel;stroke-opacity:1"
       d="m 470.59885,-0.38916515 h 0.36486"
       id="path1-58-7-6" />
    <path
       style="fill:none;stroke:#1d1d1d;stroke-width:0.964999;stroke-linecap:round;stroke-linejoin:bevel;stroke-opacity:1"
       d="m 479.14801,-0.38916515 h 0.36487"
       id="path1-1-2-5-4" />
    <path
       style="fill:none;stroke:#525257;stroke-width:0.964999;stroke-linecap:round;stroke-linejoin:bevel;stroke-opacity:1"
       d="m 10.512296,286.2325 h 0.36487"
       id="path1-50" />
    <path
       style="fill:none;stroke:#525257;stroke-width:0.964999;stroke-linecap:round;stroke-linejoin:bevel;stroke-opacity:1"
       d="m 38.770586,286.2325 h 0.36486"
       id="path1-8-5" />
    <path
       style="fill:none;stroke:#525257;stroke-width:0.964999;stroke-linecap:round;stroke-linejoin:bevel;stroke-opacity:1"
       d="m 29.892206,286.2325 h 0.36487"
       id="path1-15-54" />
    <path
       style="fill:none;stroke:#525257;stroke-width:0.964999;stroke-linecap:round;stroke-linejoin:bevel;stroke-opacity:1"
       d="m 19.061466,286.2325 h 0.36486"
       id="path1-1-82" />
    <path
       style="fill:none;stroke:#525257;stroke-width:0.964999;stroke-linecap:round;stroke-linejoin:bevel;stroke-opacity:1"
       d="m 47.986236,286.2325 h 0.36487"
       id="path1-5-1" />
    <path
       style="fill:none;stroke:#525257;stroke-width:0.964999;stroke-linecap:round;stroke-linejoin:bevel;stroke-opacity:1"
       d="m 76.244526,286.2325 h 0.36487"
       id="path1-8-3-5" />
    <path
       style="fill:none;stroke:#525257;stroke-width:0.964999;stroke-linecap:round;stroke-linejoin:bevel;stroke-opacity:1"
       d="m 67.366146,286.2325 h 0.36487"
       id="path1-15-1-4" />
    <path
       style="fill:none;stroke:#525257;stroke-width:0.964999;stroke-linecap:round;stroke-linejoin:bevel;stroke-opacity:1"
       d="m 56.535406,286.2325 h 0.36486"
       id="path1-1-8-7" />
    <path
       style="fill:none;stroke:#525257;stroke-width:0.964999;stroke-linecap:round;stroke-linejoin:bevel;stroke-opacity:1"
       d="m 85.371266,286.2325 h 0.36486"
       id="path1-58-9" />
    <path
       style="fill:none;stroke:#525257;stroke-width:0.964999;stroke-linecap:round;stroke-linejoin:bevel;stroke-opacity:1"
       d="m 113.62955,286.2325 h 0.36487"
       id="path1-8-35-3" />
    <path
       style="fill:none;stroke:#525257;stroke-width:0.964999;stroke-linecap:round;stroke-linejoin:bevel;stroke-opacity:1"
       d="m 104.75118,286.2325 h 0.36486"
       id="path1-15-6-4" />
    <path
       style="fill:none;stroke:#525257;stroke-width:0.964999;stroke-linecap:round;stroke-linejoin:bevel;stroke-opacity:1"
       d="m 93.920426,286.2325 h 0.36487"
       id="path1-1-2-56" />
    <path
       style="fill:none;stroke:#0f0f0f;stroke-width:0.964999;stroke-linecap:round;stroke-linejoin:bevel;stroke-opacity:1"
       d="m 66.883647,59.494197 c -7.015274,10.102786 -4.584224,12.722029 0,11.599497 4.584224,-1.122532 0,0.374177 0,9.354434 0,8.980254 7.893317,11.225318 19.334977,5.986835 11.44166,-5.238482 -15.516878,-14.592916 -10.4566,-16.83798 5.06028,-2.245063 4.888783,-13.096205 -1.329862,-13.096205 -6.218648,0 -7.548515,2.993419 -7.548515,2.993419 z"
       id="path2" />
    <path
       style="fill:none;stroke:#0f0f0f;stroke-width:0.964999;stroke-linecap:round;stroke-linejoin:bevel;stroke-opacity:1"
       d="M 66.883647,50.51394 C 56.052902,63.610148 51.128662,66.977743 54.255714,72.216226 c 3.12705,5.238483 -7.703698,-2.993419 3.12705,10.476965 10.83075,13.470385 32.694983,13.470385 27.505995,17.586329 -5.188987,4.11596 -2.281576,11.22533 8.549167,9.72862 10.830744,-1.49671 0.622514,-8.13394 9.500884,-14.218743 8.87837,-6.084798 -6.841147,-6.361015 -8.171017,-17.960512 -1.329867,-11.599497 -9.879034,-3.741772 -9.879034,-15.715448 0,-11.973674 -9.112281,-8.231902 -9.112281,-13.844561 0,-5.612659 -8.892831,2.245064 -8.892831,2.245064 z"
       id="path3" />
    <path
       style="fill:none;stroke:#0f0f0f;stroke-width:0.964999;stroke-linecap:round;stroke-linejoin:bevel;stroke-opacity:1"
       d="M 57.382764,96.911929 C 42.656217,78.229607 43.048629,66.229388 47.503738,62.113437 c 4.455107,-4.115951 9.879026,-7.483546 9.879026,-13.096205 0,-5.612662 5.01596,-8.980258 13.336751,-10.851145 8.320791,-1.870884 18.832928,-6.735191 18.832928,4.115951 0,10.851144 4.973542,8.601736 3.885483,19.083044 -1.088059,10.481309 10.294184,5.389536 12.683844,16.864525 2.38966,11.474992 11.28672,15.314726 7.02528,20.553209 -4.26145,5.238484 3.17813,15.715444 -10.20824,17.586334 -13.386367,1.87089 -36.680294,5.61266 -32.593471,-2.24506 4.086823,-7.85773 -3.461692,-7.10937 -3.461692,-11.97368 0,-4.864302 -9.500883,-5.238481 -9.500883,-5.238481 z"
       id="path4" />
    <path
       style="fill:none;stroke:#0f0f0f;stroke-width:0.964999;stroke-linecap:round;stroke-linejoin:bevel;stroke-opacity:1"
       d="M 44.304193,51.262295 C 51.958845,34.966759 48.239007,31.05672 62.000516,31.05672 c 13.761508,0 14.339077,-7.109371 22.888243,-2.619243 8.549167,4.490127 12.771525,7.073548 13.894057,17.327176 1.122532,10.253625 1.643544,17.471316 7.338954,17.471316 5.69541,0 5.40898,-4.218464 7.02528,4.864306 1.6163,9.08277 15.09702,12.526108 7.54851,21.604324 -7.54851,9.078217 2.65974,15.875341 1.32987,18.432651 -1.32987,2.55731 1.37951,30.30836 -7.26208,27.68912 -8.64158,-2.61924 -32.782676,6.36102 -40.331188,0 -7.548515,-6.36101 -21.446376,-9.28091 -18.37926,-16.42704 3.067116,-7.14613 8.246845,-13.50714 -4.094057,-14.62968 -12.340899,-1.12253 -16.91636,-7.109366 -13.670761,-12.347849 3.245601,-5.238482 4.9863,-15.547554 0,-19.560362 -4.986301,-4.012808 -10.720956,-16.843161 -5.36048,-16.843161 5.36048,0 9.354434,-3.259275 9.354434,-3.259275 z"
       id="path5" />
    <path
       style="fill:none;stroke:#0f0f0f;stroke-width:0.964999;stroke-linecap:round;stroke-linejoin:bevel;stroke-opacity:1"
       d="M 38.974888,-0.52916667 C 38.127523,34.966759 23.947349,26.796627 23.573172,45.764653 c -0.374177,18.968027 6.716994,29.658318 6.716994,36.799131 0,7.140815 -11.711204,13.101759 -11.711204,28.130776 0,15.02902 29.302921,19.51915 38.803802,45.71157 9.500883,26.19241 48.385736,-16.83798 54.434416,-0.37418 6.04868,16.4638 11.18623,48.64305 -2.93158,52.38482 -14.117807,3.74178 -69.267649,-2.61924 -70.597513,17.58634 -1.329868,20.20557 -6.016107,37.41773 0,39.66279 6.016106,2.24507 0.482499,20.56659 0.482499,20.56659"
       id="path6"
       sodipodi:nodetypes="cssssssssc" />
    <path
       style="fill:none;stroke:#0f0f0f;stroke-width:0.964999;stroke-linecap:round;stroke-linejoin:bevel;stroke-opacity:1"
       d="M 30.526773,-0.52916667 C 20.543393,21.702285 20.059593,8.681745 10.029797,17.586335 L 0,26.490924"
       id="path7"
       sodipodi:nodetypes="csc" />
    <path
       style="fill:none;stroke:#0f0f0f;stroke-width:0.964999;stroke-linecap:round;stroke-linejoin:bevel;stroke-opacity:1"
       d="M 30.257075,286.23249 C 23.573172,263.79502 40.109968,249.57628 25.069881,251.44717 10.029796,253.31805 -14.281171,243.96362 0,234.60919 c 14.281171,-9.35444 29.812189,-9.35444 34.050136,-24.32153 4.237951,-14.96709 40.959601,-11.5995 50.838629,-12.34785 9.879028,-0.74835 27.788105,-7.10937 13.894051,-17.21216 -13.894051,-10.10279 -9.771327,1.87089 -30.525204,-3.36759 C 47.503736,172.12157 54.558249,176.23752 44.304193,163.14132 34.050136,150.04511 7.3700687,141.43903 8.6999325,128.34282 10.029797,115.24662 5.7784221,93.91851 10.029797,87.183319 14.281171,80.448128 21.82715,42.113771 14.281171,38.540266 6.735192,34.966759 -0.48249951,37.791911 -0.48249951,37.791911"
       id="path8" />
    <path
       style="fill:none;stroke:#0f0f0f;stroke-width:0.964999;stroke-linecap:round;stroke-linejoin:bevel;stroke-opacity:1"
       d="M -0.48249951,155.65777 C 36.958219,179.9793 32.27198,181.47601 38.288087,185.96613 c 6.016106,4.49013 38.122401,-10.59458 40.752219,0.74836 2.629821,11.34294 7.823499,5.61266 -4.608144,5.98684 -12.431646,0.37417 -31.775945,6.36101 -40.382026,3.36759 -8.606077,-2.99342 -8.251869,13.47039 -15.47117,16.08963 C 11.359665,214.77779 0,209.53931 0,209.53931"
       id="path9" />
    <path
       style="fill:none;stroke:#0f0f0f;stroke-width:0.964999;stroke-linecap:round;stroke-linejoin:bevel;stroke-opacity:1"
       d="M -0.96499901,171.74739 C 14.281171,176.23752 32.309151,182.22436 25.444059,188.58538 18.578966,194.94639 22.719331,205.79753 11.359665,202.80411 0,199.8107 -0.96499901,195.32057 -0.96499901,195.32057"
       id="path10" />
    <path
       style="fill:none;stroke:#0f0f0f;stroke-width:0.964999;stroke-linecap:round;stroke-linejoin:bevel;stroke-opacity:1"
       d="m 442.52144,227.31413 c 7.01528,-10.10278 4.58423,-12.72203 0,-11.59949 -4.58422,1.12253 0,-0.37418 0,-9.35444 0,-8.98025 -7.89331,-11.22532 -19.33497,-5.98683 -11.44166,5.23848 15.51687,14.59291 10.4566,16.83798 -5.06028,2.24506 -4.88879,13.0962 1.32986,13.0962 6.21865,0 7.54851,-2.99342 7.54851,-2.99342 z"
       id="path2-6" />
    <path
       style="fill:none;stroke:#0f0f0f;stroke-width:0.964999;stroke-linecap:round;stroke-linejoin:bevel;stroke-opacity:1"
       d="m 442.52144,236.29439 c 10.83075,-13.09621 15.75499,-16.4638 12.62794,-21.70229 -3.12705,-5.23848 7.70369,2.99342 -3.12705,-10.47696 -10.83075,-13.47039 -32.69499,-13.47039 -27.506,-17.58633 5.18899,-4.11596 2.28158,-11.22533 -8.54917,-9.72862 -10.83074,1.49671 -0.62251,8.13394 -9.50088,14.21874 -8.87837,6.0848 6.84115,6.36102 8.17102,17.96051 1.32986,11.5995 9.87903,3.74178 9.87903,15.71545 0,11.97368 9.11228,8.2319 9.11228,13.84456 0,5.61266 8.89283,-2.24506 8.89283,-2.24506 z"
       id="path3-7" />
    <path
       style="fill:none;stroke:#0f0f0f;stroke-width:0.964999;stroke-linecap:round;stroke-linejoin:bevel;stroke-opacity:1"
       d="m 452.02233,189.8964 c 14.72654,18.68232 14.33413,30.68254 9.87902,34.79849 -4.4551,4.11595 -9.87902,7.48355 -9.87902,13.09621 0,5.61266 -5.01596,8.98026 -13.33675,10.85114 -8.3208,1.87089 -18.83293,6.73519 -18.83293,-4.11595 0,-10.85114 -4.97354,-8.60173 -3.88549,-19.08304 1.08806,-10.48131 -10.29418,-5.38954 -12.68384,-16.86453 -2.38966,-11.47499 -11.28672,-15.31472 -7.02528,-20.55321 4.26145,-5.23848 -3.17813,-15.71544 10.20824,-17.58633 13.38637,-1.87089 36.68029,-5.61266 32.59347,2.24506 -4.08682,7.85773 3.46169,7.10937 3.46169,11.97368 0,4.8643 9.50089,5.23848 9.50089,5.23848 z"
       id="path4-3" />
    <path
       style="fill:none;stroke:#0f0f0f;stroke-width:0.964999;stroke-linecap:round;stroke-linejoin:bevel;stroke-opacity:1"
       d="m 465.1009,235.54604 c -7.65465,16.29553 -3.93482,20.20557 -17.69633,20.20557 -13.7615,0 -14.33907,7.10937 -22.88824,2.61924 -8.54917,-4.49012 -12.77152,-7.07354 -13.89406,-17.32717 -1.12253,-10.25363 -1.64354,-17.47132 -7.33895,-17.47132 -5.69541,0 -5.40898,4.21847 -7.02528,-4.8643 -1.6163,-9.08277 -15.09702,-12.52611 -7.54851,-21.60433 7.54851,-9.07822 -2.65974,-15.87534 -1.32987,-18.43265 1.32987,-2.55731 -1.37951,-30.30836 7.26208,-27.68912 8.64158,2.61924 32.78268,-6.36102 40.33119,0 7.54851,6.36101 21.44637,9.28091 18.37926,16.42704 -3.06712,7.14613 -8.24685,13.50714 4.09405,14.62968 12.3409,1.12253 16.91637,7.10937 13.67077,12.34785 -3.2456,5.23848 -4.9863,15.54755 0,19.56036 4.9863,4.01281 10.72095,16.84316 5.36048,16.84316 -5.36048,0 -9.35444,3.25928 -9.35444,3.25928 z"
       id="path5-0" />
    <path
       style="fill:none;stroke:#0f0f0f;stroke-width:0.964999;stroke-linecap:round;stroke-linejoin:bevel;stroke-opacity:1"
       d="m 472.29358,286.3725 c 0.84736,-35.49593 13.16416,-26.3608 13.53834,-45.32882 0.37417,-18.96803 -6.717,-29.65832 -6.717,-36.79913 0,-7.14082 11.71121,-13.10176 11.71121,-28.13078 0,-15.02902 -29.30292,-19.51915 -38.8038,-45.71157 -9.50089,-26.19241 -48.38574,16.83798 -54.43442,0.37418 -6.04868,-16.4638 -11.18623,-48.643048 2.93158,-52.384818 14.11781,-3.74178 69.26765,2.61924 70.59751,-17.58634 1.32987,-20.20557 6.01611,-37.417728 0,-39.662788 -6.0161,-2.24507 1.21242,-21.53159915 1.21242,-21.53159915"
       id="path6-6"
       sodipodi:nodetypes="cssssssssc" />
    <path
       style="fill:none;stroke:#0f0f0f;stroke-width:0.964999;stroke-linecap:round;stroke-linejoin:bevel;stroke-opacity:1"
       d="m 480.47788,286.3725 c 9.98338,-22.23146 8.86762,-8.24592 18.89741,-17.15051 l 10.0298,-8.90458"
       id="path7-4"
       sodipodi:nodetypes="csc" />
    <path
       style="fill:none;stroke:#0f0f0f;stroke-width:0.964999;stroke-linecap:round;stroke-linejoin:bevel;stroke-opacity:1"
       d="m 480.54186,-0.87166466 c 6.6839,22.43746966 -11.24674,38.10371666 3.79335,36.23282666 15.04008,-1.87088 39.35105,7.48355 25.06988,16.83798 -14.28117,9.35444 -29.81219,9.35444 -34.05014,24.32153 -4.23795,14.96709 -40.9596,11.5995 -50.83863,12.34785 -9.87902,0.74835 -27.7881,7.10937 -13.89405,17.212158 13.89405,10.10279 9.77133,-1.87089 30.52521,3.36759 20.75387,5.23849 13.69936,1.12254 23.95342,14.21874 10.25405,13.09621 36.93412,21.70229 35.60426,34.7985 -1.32987,13.0962 2.92151,34.42431 -1.32987,41.1595 -4.25137,6.73519 -11.79735,45.06955 -4.25137,48.64305 7.54598,3.57351 14.76367,0.74836 14.76367,0.74836"
       id="path8-5"
       sodipodi:nodetypes="cssssssssssc" />
    <path
       style="fill:none;stroke:#0f0f0f;stroke-width:0.964999;stroke-linecap:round;stroke-linejoin:bevel;stroke-opacity:1"
       d="M 509.88759,131.15056 C 472.44687,106.82903 477.13311,105.33232 471.117,100.8422 c -6.0161,-4.490128 -38.1224,10.59458 -40.75222,-0.74836 -2.62982,-11.342938 -7.82349,-5.612658 4.60815,-5.986838 12.43164,-0.37417 31.77594,-6.36101 40.38202,-3.36759 8.60608,2.99342 8.25187,-13.47039 15.47117,-16.08963 7.2193,-2.61924 18.57897,2.61924 18.57897,2.61924"
       id="path9-3" />
    <path
       style="fill:none;stroke:#0f0f0f;stroke-width:0.964999;stroke-linecap:round;stroke-linejoin:bevel;stroke-opacity:1"
       d="m 510.37009,115.06094 c -15.24617,-4.49013 -33.27415,-10.47697 -26.40906,-16.837988 6.86509,-6.36101 2.72473,-17.21215 14.08439,-14.21873 11.35967,2.99341 12.32467,7.48354 12.32467,7.48354"
       id="path10-1" />
    <path
       style="fill:none;stroke:#0f0f0f;stroke-width:0.964999;stroke-linecap:round;stroke-linejoin:bevel;stroke-opacity:1"
       d="M 76.873389,-0.52916667 C 76.395021,-0.09018817 79.023841,3.8128846 77.450328,5.5608968 73.11145,10.380946 37.381359,18.352104 51.958845,19.083044 c 14.924802,0.748355 22.792873,-5.986837 37.593598,-2.619241 14.800727,3.367596 12.707057,24.580686 18.958987,26.940767 6.25192,2.360083 19.09694,3.150952 23.39303,12.613708 4.29609,9.462754 -2.79938,31.841078 0,43.258682 2.79938,11.4176 14.77306,26.07245 5.7928,34.67853 -8.98026,8.60607 -14.24065,0.85668 -14.24065,19.08304 0,18.22636 7.11799,25.57286 7.11799,38.16609 0,12.59323 -17.42755,22.00299 -17.42755,35.92102 0,13.91803 -17.801695,35.17267 -26.928426,42.65622 -9.12673,7.48353 -9.60923,16.45063 -9.60923,16.45063"
       id="path11"
       sodipodi:nodetypes="csssssssssssc" />
    <path
       style="fill:none;stroke:#0f0f0f;stroke-width:0.964999;stroke-linecap:round;stroke-linejoin:bevel;stroke-opacity:1"
       d="m 71.467871,239.09932 c -9.467355,-1.12253 -19.363124,2.24506 -11.973674,5.61266 7.38945,3.36759 5.238483,8.60607 12.34785,2.61924 7.10937,-5.98684 11.806407,-15.34127 7.198259,-12.34785 -4.608144,2.99342 -7.572435,4.11595 -7.572435,4.11595 z"
       id="path12" />
    <path
       style="fill:none;stroke:#0f0f0f;stroke-width:0.964999;stroke-linecap:round;stroke-linejoin:bevel;stroke-opacity:1"
       d="m 71.467871,230.79005 c 9.891839,-3.29023 12.091034,-8.96707 13.420894,-2.91605 1.329859,6.05101 11.40479,13.26383 4.663678,17.96051 -6.741112,4.69667 -12.460552,6.73519 -13.790417,8.98026 -1.329864,2.24506 -14.022765,16.83796 -15.145297,3.36759 -1.122532,-13.47038 -15.377925,-11.32877 -13.112993,-15.95426 2.264931,-4.62549 -0.192284,-14.57302 8.928883,-11.43805 9.121163,3.13496 12.463544,0 12.463544,0 z"
       id="path13" />
    <path
       style="fill:none;stroke:#0f0f0f;stroke-width:0.964999;stroke-linecap:round;stroke-linejoin:bevel;stroke-opacity:1"
       d="m 44.304193,233.92501 c 4.529412,-9.20044 10.800675,-15.03127 17.696323,-13.90874 6.895647,1.12254 24.766888,-7.10937 27.551927,-2.61924 2.785038,4.49013 15.631887,6.31263 9.978728,10.10279 -5.834362,3.91165 -1.247478,14.72828 -1.247478,14.72828 0,0 -4.586884,15.54162 -13.394928,18.0893 -9.591849,2.77439 -3.080319,21.43813 -18.005118,18.44471 -14.924802,-2.99341 -19.305159,-4.00592 -17.11498,-11.22532 2.190178,-7.21939 0.249097,-8.98025 -5.615742,-14.59291 -5.864838,-5.61266 0.151268,-19.01887 0.151268,-19.01887 z"
       id="path14"
       sodipodi:nodetypes="cssscssssc" />
    <path
       style="fill:none;stroke:#0f0f0f;stroke-width:0.964999;stroke-linecap:round;stroke-linejoin:bevel;stroke-opacity:1"
       d="M 258.89575,-0.43583235 C 225.63692,26.490924 193.69622,30.682541 225.14268,31.805073 c 31.44646,1.122531 13.35243,19.742422 32.77633,30.68254 19.4239,10.940122 36.45331,-35.958665 62.69833,-27.520854 C 346.8624,43.40457 340.59788,155.28359 298.59351,144.43245 256.58914,133.58131 214.8895,68.100275 196.88439,87.183319 c -18.00511,19.083041 -22.51775,74.299521 -3.43471,74.299521 19.08304,0 29.62852,42.20511 45.08942,48.14244 15.4609,5.93733 82.87922,-59.42265 90.73694,-38.36039 7.85773,21.06226 31.38607,46.8805 -7.32882,64.84101 -38.71489,17.96051 -115.93608,16.79299 -125.06282,11.45759 -9.12674,-5.33539 -12.70332,-52.6171 -28.83586,-41.39178 -16.13254,11.22532 -28.35646,60.24256 -13.5133,60.24256 14.84316,0 153.34755,-19.83141 151.54182,-4.49014 -1.20691,10.25377 -27.66039,27.68614 -34.56402,15.44655 -5.47258,-9.70246 -13.11153,8.95515 -13.11153,8.95515"
       id="path16"
       sodipodi:nodetypes="cssssssssssssssc" />
    <path
       style="fill:none;stroke:#0f0f0f;stroke-width:0.964999;stroke-linecap:round;stroke-linejoin:bevel;stroke-opacity:1"
       d="m 295.39295,88.305851 c 3.20056,-10.076244 -1.57824,-19.813458 7.54851,-11.122806 9.12675,8.690652 14.18243,17.109644 9.12675,17.109644 -5.05572,0 -8.40325,17.586331 -12.53924,12.347851 -4.13602,-5.23848 -9.02039,-9.354432 -4.13602,-11.786585 4.88436,-2.432154 0,-6.548104 0,-6.548104 z"
       id="path17" />
    <path
       style="fill:none;stroke:#0f0f0f;stroke-width:0.964999;stroke-linecap:round;stroke-linejoin:bevel;stroke-opacity:1"
       d="m 286.80693,88.49294 c 4.30305,-11.309895 -1.49672,-12.909118 4.67722,-17.960512 6.17392,-5.051396 1.38282,-6.175544 12.22666,-1.683797 10.84387,4.491743 14.23469,13.283295 16.90653,20.018485 2.67187,6.735194 -1.701,4.303041 -6.06266,15.154184 -4.36168,10.85114 1.19573,25.14341 -10.84387,15.37803 -12.03957,-9.76537 -17.46514,-2.54813 -16.52971,-11.30169 0.93544,-8.753558 -0.37417,-19.6047 -0.37417,-19.6047 z"
       id="path18" />
    <path
       style="fill:none;stroke:#0f0f0f;stroke-width:0.964999;stroke-linecap:round;stroke-linejoin:bevel;stroke-opacity:1"
       d="m 281.00718,85.499521 c 3.55502,-22.450639 -3.82238,-30.682541 13.05589,-28.437477 16.8783,2.245063 22.17859,7.054921 27.85388,16.27833 5.67531,9.22341 15.12343,9.414744 4.29268,23.010289 -10.83077,13.595547 -2.38368,17.025067 -7.59764,25.444057 -5.21394,8.41899 -2.88857,15.52836 -17.58633,11.41241 -14.69776,-4.11595 -27.67238,-5.98684 -26.3425,-19.27013 1.32988,-13.2833 16.4439,-2.09643 -7.8858,-23.217993 -4.85861,-4.217948 14.20982,-5.219486 14.20982,-5.219486 z"
       id="path19"
       sodipodi:nodetypes="csssssssc" />
    <path
       style="fill:none;stroke:#0f0f0f;stroke-width:0.964999;stroke-linecap:round;stroke-linejoin:bevel;stroke-opacity:1"
       d="m 316.36694,43.591659 c -7.48355,6.361015 -15.02571,-1.026972 -8.41898,5.799749 6.60672,6.826721 13.47038,15.341272 15.34125,12.347853 1.8709,-2.993419 5.42557,-10.851145 0,-11.973677 -5.42557,-1.122531 -6.92227,-6.173925 -6.92227,-6.173925 z"
       id="path20" />
    <path
       style="fill:none;stroke:#0f0f0f;stroke-width:0.964999;stroke-linecap:round;stroke-linejoin:bevel;stroke-opacity:1"
       d="m 206.76343,92.604166 c -9.87903,7.143749 -13.6176,8.210794 -4.35718,9.926234 9.26041,1.71543 13.22916,6.97524 10.31875,0 -2.91042,-6.975244 -5.96157,-9.926234 -5.96157,-9.926234 z"
       id="path21" />
    <path
       style="fill:none;stroke:#0f0f0f;stroke-width:0.964999;stroke-linecap:round;stroke-linejoin:bevel;stroke-opacity:1"
       d="m 189.08753,140.49375 c -1.32987,12.17083 5.25737,8.37395 11.46663,14.68152 6.20927,6.30757 8.63153,12.61514 12.17084,6.30757 3.53931,-6.30757 10.19628,-10.14118 1.42641,-15.16826 -8.76988,-5.02708 2.4075,-20.90208 -8.76988,-13.22917 -11.17737,7.67292 -16.294,7.40834 -16.294,7.40834 z"
       id="path22" />
    <path
       style="fill:none;stroke:#0f0f0f;stroke-width:0.964999;stroke-linecap:round;stroke-linejoin:bevel;stroke-opacity:1"
       d="m 203.69918,139.83894 c -4.05779,-2.59832 -9.78585,0.51321 -8.43668,4.11773 1.34917,3.60452 8.73714,12.67095 10.11903,11.2186 1.3819,-1.45236 13.58558,-2.43666 7.08608,-5.77373 -6.66522,-3.42215 -3.99912,-9.65614 -3.99912,-9.65614 z"
       id="path23"
       sodipodi:nodetypes="cssssc" />
    <path
       style="fill:none;stroke:#0f0f0f;stroke-width:0.964999;stroke-linecap:round;stroke-linejoin:bevel;stroke-opacity:1"
       d="m 232.30416,108.09764 c -11.1125,-5.56724 -9.41711,-11.134485 -11.37708,-5.56724 -1.95997,5.56724 -6.67945,8.16416 -11.1125,8.16416 -4.43305,0 -11.94391,-8.5347 -15.23237,-2.59692 -3.28846,5.93778 -12.30193,17.05028 -6.15097,18.63778 6.15097,1.5875 15.03334,-0.43861 20.32501,-1.40993 5.29166,-0.97132 10.21086,6.06467 10.21086,9.56669 0,3.50203 6.17173,13.03534 7.50544,16.97865 1.3337,3.94331 -12.91104,16.29853 -10.20824,19.39406 2.7028,3.09552 15.11379,31.93511 22.27479,29.81844 7.16099,-2.11667 41.65465,-11.91497 41.91923,-16.8054 0.26458,-4.89043 -7.33253,-4.82332 -14.93591,-8.16417 -7.60341,-3.34085 -22.68616,-12.33668 -17.10429,-18.68668 5.58187,-6.35 6.90478,-30.54799 -6.32438,-34.28787 -13.22917,-3.73988 -9.78959,-15.04157 -9.78959,-15.04157 z"
       id="path24" />
    <path
       style="fill:none;stroke:#0f0f0f;stroke-width:0.964999;stroke-linecap:round;stroke-linejoin:bevel;stroke-opacity:1"
       d="m 225.14268,119.39933 c -10.99127,-2.18891 -17.23778,-3.73988 -10.99127,0 6.2465,3.73988 11.80275,18.184 16.03609,21.359 4.23333,3.175 6.95255,17.62959 3.21169,20.72451 -3.74086,3.09492 -11.17076,9.24052 -6.92664,14.63092 4.24411,5.3904 4.90555,15.2382 12.06655,13.3279 7.16099,-1.91029 11.77651,-3.18371 19.37991,-5.16373 7.60341,-1.98002 8.41692,-1.71543 0,-5.4196 -8.41693,-3.70417 -9.36715,-4.76943 -13.7086,-9.525 -4.34144,-4.75557 0.10151,-18.06999 1.48968,-22.22916 1.38818,-4.15917 5.38949,-16.55955 -2.28343,-16.55955 -7.67291,0 -14.55208,-5.44536 -14.81666,-7.40541 -0.26459,-1.96004 -3.45732,-3.73988 -3.45732,-3.73988 z"
       id="path25" />
    <path
       style="fill:none;stroke:#0f0f0f;stroke-width:0.964999;stroke-linecap:round;stroke-linejoin:bevel;stroke-opacity:1"
       d="m 280.94709,142.875 c -20.86168,-6.87917 -20.36835,-20.19481 -21.69822,-7.98282 -1.32986,12.21199 -1.90405,23.49574 1.63029,26.59066 3.53435,3.09492 14.2875,19.4798 21.69584,14.63092 7.40833,-4.84887 25.66458,-4.12074 25.92916,-11.536 0.26459,-7.41526 -8.75993,-5.93388 -13.11121,-11.16998 -4.35129,-5.2361 -7.21564,-4.72027 -10.83075,-6.30361 -3.61511,-1.58334 -3.61511,-4.22917 -3.61511,-4.22917 z"
       id="path26" />
    <path
       style="fill:none;stroke:#0f0f0f;stroke-width:0.964999;stroke-linecap:round;stroke-linejoin:bevel;stroke-opacity:1"
       d="M 150.83021,-0.48249951 C 167.74766,32.812278 219.6625,-7.1093694 205.43356,16.83798 c -14.22894,23.94735 1.25907,18.473195 13.53355,28.926673 12.27448,10.453476 48.62027,23.733051 26.73298,27.575721 -21.88728,3.842671 -28.18821,-15.583267 -44.01851,-7.791635 -15.83029,7.791635 -69.99805,-0.166351 -58.94637,17.015045 11.05167,17.181398 33.86248,0.188698 25.31332,28.130776 -8.54916,27.94209 -38.54948,23.54221 -32.59634,44.48071 5.95315,20.93849 53.69219,23.26967 47.8947,9.40249 -5.79748,-13.86718 20.22598,9.78888 22.08667,16.89825 1.86068,7.10937 20.57164,40.78533 33.10554,39.6628 12.53389,-1.12254 75.44831,-45.56191 78.76328,-34.7985 3.31496,10.76342 25.77346,34.20615 11.59949,36.2952 -14.17394,2.08906 -73.26443,24.02472 -81.8136,16.08963 -8.54917,-7.93509 -43.73526,11.44476 -48.87401,-7.93509 -5.13876,-19.37986 5.43978,-59.33791 -12.36297,-46.51212 -17.80275,12.8258 -45.78059,5.80362 -56.60656,31.28468 -10.82597,25.48106 8.71882,23.29089 10.83074,18.3624 2.11192,-4.92848 -16.34202,19.54717 -8.17101,26.39239 8.17101,6.84522 29.62274,22.69286 36.14408,13.51005 6.52134,-9.18282 96.36497,-16.10922 96.36497,-9.51614 0,6.59307 -17.32524,27.40352 -18.71341,13.03427 -1.41171,-14.61282 -56.61257,-7.88564 -56.61257,-1.20271 0,2.84757 -6.65418,11.90489 -12.19794,3.08035 -4.7328,-7.53366 -17.20855,4.45405 -21.02224,2.20272 -6.48166,-3.82632 -4.9187,4.12562 -4.9187,4.12562"
       id="path28"
       sodipodi:nodetypes="cssssssssssssssssssssssssc" />
    <path
       style="fill:none;stroke:#0f0f0f;stroke-width:0.964999;stroke-linecap:round;stroke-linejoin:bevel;stroke-opacity:1"
       d="m 117.07812,253.33854 c -9.12812,15.34583 -24.915457,12.56771 -13.75833,18.52083 11.15713,5.95313 22.09271,16.46836 26.32604,7.70501 4.23333,-8.76334 -1.71979,-10.61543 -5.55625,-14.31959 -3.83646,-3.70417 5.15938,-25.00313 -1.32291,-22.35729 -6.4823,2.64583 -5.68855,10.45104 -5.68855,10.45104 z"
       id="path29" />
    <path
       style="fill:none;stroke:#0f0f0f;stroke-width:0.964999;stroke-linecap:round;stroke-linejoin:bevel;stroke-opacity:1"
       d="m 118.41876,266.96458 c -5.27171,-1.5875 -8.67362,-4.49792 -5.27171,0.13229 3.40191,4.63021 5.86293,9.26042 7.37066,5.68854 1.50772,-3.57187 -2.09895,-5.82083 -2.09895,-5.82083 z"
       id="path30" />
    <path
       style="fill:none;stroke:#0f0f0f;stroke-width:0.964999;stroke-linecap:round;stroke-linejoin:bevel;stroke-opacity:1"
       d="m 187.45729,79.507291 c -24.20938,-0.529167 -32.14688,-2.38714 -20.90208,5.159375 11.24479,7.546514 3.70416,55.280444 -4.23334,62.894524 -7.9375,7.61408 -13.49375,11.89199 -5.82083,13.92165 7.67292,2.02966 21.43125,9.96716 19.44687,-2.60055 -1.98437,-12.56771 3.83646,-59.134375 5.42396,-61.647916 1.5875,-2.513542 32.09896,-25.721588 19.57917,-22.886458 -12.5198,2.835129 -14.15521,3.881691 -14.15521,3.881691 z"
       id="path31" />
    <path
       style="fill:none;stroke:#0f0f0f;stroke-width:0.964999;stroke-linecap:round;stroke-linejoin:bevel;stroke-opacity:1"
       d="m 145.65312,176.34479 c -8.06979,4.63021 -27.15059,21.54808 1.70439,13.81675 28.85499,-7.73133 15.36124,-15.25167 10.73103,-12.68212 -4.63021,2.56954 -12.43542,-1.13463 -12.43542,-1.13463 z"
       id="path32" />
    <path
       style="fill:none;stroke:#0f0f0f;stroke-width:0.964999;stroke-linecap:round;stroke-linejoin:bevel;stroke-opacity:1"
       d="m 304.27133,199.76041 c -26.92842,15.8022 -58.32678,20.37292 -33.60258,21.69584 24.7242,1.32291 27.25308,-4.7625 33.60258,-3.175 6.3495,1.5875 19.44727,3.21869 14.287,-2.71864 -5.16028,-5.93733 -7.8963,-7.60011 -8.73125,-12.6272 -0.83495,-5.02708 -5.55575,-3.175 -5.55575,-3.175 z"
       id="path33" />
    <path
       style="fill:none;stroke:#0f0f0f;stroke-width:0.964999;stroke-linecap:round;stroke-linejoin:bevel;stroke-opacity:1"
       d="m 176.74166,239.44791 c -6.08541,-13.75833 -19.09506,-5.47037 -13.22916,5.07003 5.8659,10.54039 26.15153,24.25578 24.24516,12.12789 -1.90637,-12.12789 -11.016,-17.19792 -11.016,-17.19792 z"
       id="path34" />
    <path
       style="fill:none;stroke:#0f0f0f;stroke-width:0.964999;stroke-linecap:round;stroke-linejoin:bevel;stroke-opacity:1"
       d="m 113.14705,6.1739261 c 12.36848,14.2187389 17.30624,19.2701329 28.25829,35.3597589 10.95205,16.089625 14.83222,21.141018 35.01927,17.025067 20.18705,-4.115951 29.35041,-1.982309 15.90254,-17.025067 -13.44787,-15.042761 -34.42432,-9.541523 -40.97242,-21.328109 -6.5481,-11.786586 -22.11,-20.01848733 -22.11,-14.4058274 0,5.6126604 -16.09768,0.3741775 -16.09768,0.3741775 z"
       id="path35" />
    <path
       style="fill:none;stroke:#0f0f0f;stroke-width:0.964999;stroke-linecap:round;stroke-linejoin:bevel;stroke-opacity:1"
       d="m 165.78291,40.224064 c -18.4254,-13.25064 -24.37757,-29.185833 -24.37757,-20.392665 0,8.793168 6.39471,34.798492 19.49091,31.992162 13.09621,-2.806329 36.65725,-9.541523 25.53154,-10.664055 -11.12571,-1.122532 -20.64488,-0.935442 -20.64488,-0.935442 z"
       id="path36" />
    <path
       style="fill:none;stroke:#0f0f0f;stroke-width:0.964999;stroke-linecap:round;stroke-linejoin:bevel;stroke-opacity:1"
       d="m 278.87083,12.170833 c -20.95182,8.73125 -44.8497,22.545646 -19.57917,21.166667 25.27054,-1.37898 2.23659,2.38125 29.36875,-4.233334 27.13218,-6.614583 72.64247,-4.724072 39.6875,-12.283911 -32.95496,-7.5598384 -47.40082,-20.411344 -47.40082,-10.2056718 0,10.2056718 -2.07626,5.5562498 -2.07626,5.5562498 z"
       id="path37" />
    <path
       style="fill:none;stroke:#0f0f0f;stroke-width:0.964999;stroke-linecap:round;stroke-linejoin:bevel;stroke-opacity:1"
       d="m 295.39295,16.820255 c -9.06505,1.311871 -25.51795,-0.151505 -16.25754,3.288078 9.26042,3.439583 16.01124,3.563707 20.90209,0.79375 4.89085,-2.769957 5.02708,-5.393698 1.05833,-4.081828 -3.96875,1.311871 -5.70288,0 -5.70288,0 z"
       id="path38" />
    <path
       style="fill:none;stroke:#0f0f0f;stroke-width:0.964999;stroke-linecap:round;stroke-linejoin:bevel;stroke-opacity:1"
       d="m 256.58914,81.196481 c -13.93514,3.180508 -29.83558,-3.881708 -18.05004,5.238482 11.78554,9.120193 5.04739,27.984087 15.4609,21.662677 10.41351,-6.3214 23.63959,-5.36443 14.28514,-10.624445 -9.35442,-5.260015 -11.696,-16.276714 -11.696,-16.276714 z"
       id="path39" />
    <path
       style="fill:none;stroke:#0f0f0f;stroke-width:0.964999;stroke-linecap:round;stroke-linejoin:bevel;stroke-opacity:1"
       d="m 256.58914,92.21318 c -5.70324,-1.494173 -9.44501,-5.260017 -5.51615,0 3.92886,5.260015 4.36999,8.01506 5.51615,5.072928 1.14616,-2.942132 0,-5.072928 0,-5.072928 z"
       id="path40" />
    <path
       style="fill:none;stroke:#0f0f0f;stroke-width:0.964999;stroke-linecap:round;stroke-linejoin:bevel;stroke-opacity:1"
       d="M 379.5266,0.09333436 C 405.86428,33.290832 443.17708,33.3375 404.54791,37.570833 c -38.62916,4.233333 -72.04935,-38.6666306 -46.56666,4.7625 10.60352,18.071155 -38.27053,95.531707 -17.63303,96.060877 20.6375,0.52917 51.1544,-38.18886 50.6381,-3.50203 -0.56616,38.03632 -54.33238,14.02712 -40.45159,55.26936 8.54917,25.40107 34.28869,25.36947 40.4516,41.58574 12.29699,32.35676 -75.5942,13.22429 -58.20835,28.57012 17.38588,15.34584 106.44839,5.32426 111.99562,10.88051 5.54723,5.55625 -65.31565,14.22202 -65.31565,14.22202"
       id="path42"
       sodipodi:nodetypes="cssssssssc" />
    <path
       style="fill:none;stroke:#0f0f0f;stroke-width:0.964999;stroke-linecap:round;stroke-linejoin:bevel;stroke-opacity:1"
       d="m 369.91464,139.56815 c -39.89387,3.88268 -48.87777,-2.29773 -39.89387,5.79974 8.9839,8.09748 -1.80237,12.79502 11.63558,10.44625 13.43795,-2.34877 28.25829,-0.67145 28.25829,-6.51738 0,-5.84593 0,-9.72861 0,-9.72861 z"
       id="path43" />
    <path
       style="fill:none;stroke:#0f0f0f;stroke-width:0.964999;stroke-linecap:round;stroke-linejoin:bevel;stroke-opacity:1"
       d="m 368.56468,231.74728 c -9.48078,-9.61929 1.23056,-21.53922 -9.48078,-9.61929 -10.71134,11.91993 -32.0529,14.12484 -18.76962,18.91568 13.2833,4.79084 7.93887,4.71737 18.76962,2.35868 10.83074,-2.35868 25.44733,-1.06695 19.70913,-6.36101 -5.73823,-5.29406 -10.22835,-5.29406 -10.22835,-5.29406 z"
       id="path44" />
    <path
       style="fill:none;stroke:#0f0f0f;stroke-width:0.964999;stroke-linecap:round;stroke-linejoin:bevel;stroke-opacity:1"
       d="m 371.24452,278.57503 c -55.67631,-7.08993 -51.03177,-35.84603 -57.84645,-23.199 -8.04256,14.9258 10.45123,-3.32481 9.87902,18.45142 -0.15395,5.85866 12.33411,0 27.25764,4.74758 15.55407,4.94817 20.70979,0 20.70979,0 z"
       id="path45"
       sodipodi:nodetypes="csssc" />
    <path
       style="fill:none;stroke:#0f0f0f;stroke-width:0.964999;stroke-linecap:round;stroke-linejoin:bevel;stroke-opacity:1"
       d="m 405.05192,254.06641 c -7.16423,-6.92228 -12.05037,-14.85707 -11.23027,-4.30304 0.82008,10.55403 -8.09456,13.8116 2.73619,10.55403 10.83074,-3.25757 8.49408,-6.25099 8.49408,-6.25099 z"
       id="path46" />
    <path
       style="fill:none;stroke:#0f0f0f;stroke-width:0.964999;stroke-linecap:round;stroke-linejoin:bevel;stroke-opacity:1"
       d="m 464.16698,266.97553 c -6.72074,-6.65813 -4.82627,-17.97663 -7.67065,-4.96591 -2.84435,13.01073 -11.51186,20.12008 -2.84435,15.44288 8.66749,-4.67722 10.515,-10.47697 10.515,-10.47697 z"
       id="path47" />
    <path
       style="fill:none;stroke:#0f0f0f;stroke-width:0.964999;stroke-linecap:round;stroke-linejoin:bevel;stroke-opacity:1"
       d="m 377.54493,188.2112 c -5.96632,-12.09744 -14.78002,-24.6957 -14.9671,-13.47039 -0.18709,11.22532 -9.54151,15.42073 1.87089,15.42073 11.41241,0 13.09621,-1.95034 13.09621,-1.95034 z"
       id="path48" />
    <path
       style="fill:none;stroke:#0f0f0f;stroke-width:0.964999;stroke-linecap:round;stroke-linejoin:bevel;stroke-opacity:1"
       d="m 372.11936,11.22532 c 13.82911,9.915699 34.97022,17.299255 13.93042,12.103031 -21.0398,-5.196225 -42.55497,-7.799992 -33.01346,-12.29012 9.54151,-4.4901278 19.08304,0.187089 19.08304,0.187089 z"
       id="path49" />
    <path
       style="fill:none;stroke:#0f0f0f;stroke-width:0.964999;stroke-linecap:round;stroke-linejoin:bevel;stroke-opacity:1"
       d="m 344.04268,39.101532 c -6.16056,-3.180508 -9.90232,-11.129761 -5.59927,2.993419 4.30302,14.123178 10.76145,31.430896 10.76145,17.212156 0,-14.218739 -5.16218,-19.270133 -5.16218,-19.270133 z"
       id="path50" />
    <path
       style="fill:none;stroke:#0f0f0f;stroke-width:0.964999;stroke-linecap:round;stroke-linejoin:bevel;stroke-opacity:1"
       d="m 452.02231,17.066979 c -29.95028,-6.028748 -21.3388,-14.0936265 -19.70913,8.460591 1.62967,22.554217 23.82221,20.870419 -10.24115,25.173459 -34.06335,4.303038 -27.06383,-16.276714 -43.279,3.928862 -16.2152,20.205575 -20.48352,30.736388 -20.48352,45.115291 0,14.378908 -15.56308,25.465228 2.95871,16.908848 18.52178,-8.55639 14.03164,10.94044 20.76683,-12.81982 6.7352,-23.760261 -23.60478,-30.495452 10.47697,-33.488871 34.08174,-2.993419 26.5666,10.102789 47.70762,-5.051393 21.14101,-15.154183 38.85491,-20.552593 22.09983,-31.791495 -16.75506,-11.2389 -10.29716,-16.435472 -10.29716,-16.435472 z"
       id="path51" />
    <path
       style="fill:none;stroke:#0f0f0f;stroke-width:0.964999;stroke-linecap:round;stroke-linejoin:bevel;stroke-opacity:1"
       d="m 371.37101,94.343976 c -4.67722,-2.130796 -7.62373,-5.553956 -5.42557,3.316308 2.19816,8.870266 -0.74837,11.973676 3.55468,9.167346 4.30302,-2.80633 8.28217,0.50998 5.79974,-5.98684 -2.48242,-6.496814 -3.92885,-6.496814 -3.92885,-6.496814 z"
       id="path52" />
    <path
       style="fill:none;stroke:#0f0f0f;stroke-width:0.964999;stroke-linecap:round;stroke-linejoin:bevel;stroke-opacity:1"
       d="m 426.59376,54.068625 c -13.87615,4.115951 -21.8287,-1.122532 -31.18633,1.122532 -9.35765,2.245063 -19.92048,5.374555 -10.94023,7.647916 8.98028,2.273363 0.56129,-3.577402 14.96711,0 14.40582,3.577404 -3.42434,9.388313 19.83139,2.273363 23.25574,-7.11495 33.89151,-14.353556 24.13445,-13.475964 -9.75709,0.877593 -16.80639,2.432153 -16.80639,2.432153 z"
       id="path53" />
    <path
       style="fill:none;stroke:#0f0f0f;stroke-width:0.964999;stroke-linecap:round;stroke-linejoin:bevel;stroke-opacity:1"
       d="m 451.44496,35.546847 c -8.00124,-8.793168 -13.83543,-23.40615 -10.25339,-10.019277 3.58203,13.386873 4.97855,22.213682 8.56958,14.322315 3.59104,-7.891365 1.68381,-4.303038 1.68381,-4.303038 z"
       id="path54" />
    <path
       style="fill:none;stroke:#0f0f0f;stroke-width:0.964999;stroke-linecap:round;stroke-linejoin:bevel;stroke-opacity:1"
       d="m 417.39481,11.038231 c -12.25841,-4.6772162 -23.38896,-6.0287478 -12.25841,0 11.13054,6.028748 12.45362,9.999521 15.25182,6.028748 2.79824,-3.970772 -2.99341,-6.028748 -2.99341,-6.028748 z"
       id="path55" />
    <path
       style="fill:none;stroke:#0f0f0f;stroke-width:0.964999;stroke-linecap:round;stroke-linejoin:bevel;stroke-opacity:1"
       d="m 460.57147,6.5220995 c -11.93284,0 -23.02097,-2.1439256 -13.07311,2.0842895 9.94788,4.228215 13.07311,-2.0842895 13.07311,-2.0842895 z"
       id="path56" />
  </g>
</svg>
